<svg xmlns="http://www.w3.org/2000/svg" width="900" height="560" viewBox="0 0 900 560">
<rect width="900" height="560" fill="#f7f2e7"/>
<text x="100" y="34" font-family="-apple-system, BlinkMacSystemFont, 'PingFang SC', 'WenQuanYi Zen Hei', 'Microsoft YaHei', system-ui, sans-serif" font-size="20" font-weight="700" fill="#2b2620">同样是变现 1 个亿，公司需要多大</text>
<text x="100" y="56" font-family="-apple-system, BlinkMacSystemFont, 'PingFang SC', 'WenQuanYi Zen Hei', 'Microsoft YaHei', system-ui, sans-serif" font-size="14" fill="#8a8070">纵轴为对数坐标，两根柱子相差一个数量级以上</text>
<path d="M 100.0 470.0 Q 248.0 469.5 322.0 469.3 Q 396.0 469.2 470.0 469.5 Q 544.0 469.8 618.0 469.6 Q 692.0 469.3 766.0 469.7 L 840.0 470.0 " fill="none" stroke="#8a8070" stroke-width="0.8" stroke-dasharray="1 5" opacity="0.6"/>
<text x="86" y="475.0" font-family="-apple-system, BlinkMacSystemFont, 'PingFang SC', 'WenQuanYi Zen Hei', 'Microsoft YaHei', system-ui, sans-serif" font-size="15" fill="#8a8070" text-anchor="end">1 亿</text>
<path d="M 100.0 354.9 Q 248.0 354.4 322.0 354.8 Q 396.0 355.3 470.0 355.3 Q 544.0 355.3 618.0 355.4 Q 692.0 355.6 766.0 355.2 L 840.0 354.9 " fill="none" stroke="#8a8070" stroke-width="0.8" stroke-dasharray="1 5" opacity="0.6"/>
<text x="86" y="359.9" font-family="-apple-system, BlinkMacSystemFont, 'PingFang SC', 'WenQuanYi Zen Hei', 'Microsoft YaHei', system-ui, sans-serif" font-size="15" fill="#8a8070" text-anchor="end">10 亿</text>
<path d="M 100.0 239.8 Q 248.0 240.7 322.0 240.2 Q 396.0 239.7 470.0 239.9 Q 544.0 240.2 618.0 240.2 Q 692.0 240.2 766.0 240.0 L 840.0 239.8 " fill="none" stroke="#8a8070" stroke-width="0.8" stroke-dasharray="1 5" opacity="0.6"/>
<text x="86" y="244.8" font-family="-apple-system, BlinkMacSystemFont, 'PingFang SC', 'WenQuanYi Zen Hei', 'Microsoft YaHei', system-ui, sans-serif" font-size="15" fill="#8a8070" text-anchor="end">100 亿</text>
<path d="M 100.0 124.7 Q 248.0 124.6 322.0 124.5 Q 396.0 124.4 470.0 124.7 Q 544.0 125.1 618.0 124.8 Q 692.0 124.5 766.0 124.6 L 840.0 124.7 " fill="none" stroke="#8a8070" stroke-width="0.8" stroke-dasharray="1 5" opacity="0.6"/>
<text x="86" y="129.7" font-family="-apple-system, BlinkMacSystemFont, 'PingFang SC', 'WenQuanYi Zen Hei', 'Microsoft YaHei', system-ui, sans-serif" font-size="15" fill="#8a8070" text-anchor="end">1,000 亿</text>

<path d="M 100.0 90.0 Q 100.9 216.7 101.0 280.0 Q 101.2 343.3 100.6 406.7 L 100.0 470.0 " fill="none" stroke="#5c5346" stroke-width="1.6" stroke-linecap="round"/>
<path d="M 100.0 470.0 Q 346.7 470.7 470.0 469.8 Q 593.3 468.9 716.7 469.4 L 840.0 470.0 " fill="none" stroke="#5c5346" stroke-width="1.6" stroke-linecap="round"/>
<clipPath id="clip1"><rect x="197" y="121.65324413972914" width="166" height="121.11558528675693"/></clipPath>
<g clip-path="url(#clip1)">
<path d="M 324.9 -228.1 Q 416.7 -112.2 462.2 -53.9 Q 507.6 4.4 552.7 62.9 Q 597.8 121.5 643.4 179.7 L 689.0 237.9 " fill="none" stroke="#3a6ea5" stroke-width="1.6" opacity="0.75"/><path d="M 317.8 -222.5 Q 408.8 -106.0 454.4 -47.9 Q 500.1 10.2 545.2 68.8 Q 590.2 127.4 636.0 185.4 L 681.9 243.4 " fill="none" stroke="#3a6ea5" stroke-width="1.6" opacity="0.75"/><path d="M 310.7 -217.0 Q 401.7 -100.5 447.4 -42.4 Q 493.2 15.7 538.9 73.7 Q 584.7 131.8 629.7 190.4 L 674.8 249.0 " fill="none" stroke="#3a6ea5" stroke-width="1.6" opacity="0.75"/><path d="M 303.6 -211.5 Q 395.6 -95.7 441.0 -37.4 Q 486.4 21.0 531.6 79.4 Q 576.9 137.9 622.3 196.2 L 667.7 254.5 " fill="none" stroke="#3a6ea5" stroke-width="1.6" opacity="0.75"/><path d="M 296.6 -205.9 Q 388.4 -90.1 433.7 -31.7 Q 479.1 26.6 524.5 85.0 Q 570.0 143.3 615.3 201.7 L 660.6 260.0 " fill="none" stroke="#3a6ea5" stroke-width="1.6" opacity="0.75"/><path d="M 289.5 -200.4 Q 380.3 -83.8 425.8 -25.5 Q 471.2 32.8 516.6 91.2 Q 561.9 149.6 607.7 207.6 L 653.5 265.6 " fill="none" stroke="#3a6ea5" stroke-width="1.6" opacity="0.75"/><path d="M 282.4 -194.8 Q 373.3 -78.3 418.8 -20.0 Q 464.2 38.3 509.5 96.7 Q 554.8 155.1 600.6 213.1 L 646.4 271.1 " fill="none" stroke="#3a6ea5" stroke-width="1.6" opacity="0.75"/><path d="M 275.3 -189.3 Q 366.2 -72.7 411.5 -14.3 Q 456.8 44.1 502.3 102.3 Q 547.8 160.5 593.6 218.6 L 639.3 276.7 " fill="none" stroke="#3a6ea5" stroke-width="1.6" opacity="0.75"/><path d="M 268.2 -183.8 Q 359.5 -67.5 404.4 -8.8 Q 449.3 49.9 494.8 108.2 Q 540.4 166.4 586.3 224.3 L 632.2 282.2 " fill="none" stroke="#3a6ea5" stroke-width="1.6" opacity="0.75"/><path d="M 261.1 -178.2 Q 351.8 -61.5 397.8 -3.6 Q 443.9 54.2 488.9 112.8 Q 533.9 171.4 579.5 229.6 L 625.1 287.8 " fill="none" stroke="#3a6ea5" stroke-width="1.6" opacity="0.75"/><path d="M 254.0 -172.7 Q 344.7 -56.0 390.5 2.1 Q 436.2 60.2 481.4 118.7 Q 526.6 177.1 572.3 235.2 L 618.1 293.3 " fill="none" stroke="#3a6ea5" stroke-width="1.6" opacity="0.75"/><path d="M 246.9 -167.1 Q 338.5 -51.1 383.8 7.3 Q 429.2 65.7 474.8 123.8 Q 520.5 181.9 565.7 240.4 L 611.0 298.8 " fill="none" stroke="#3a6ea5" stroke-width="1.6" opacity="0.75"/><path d="M 239.8 -161.6 Q 330.9 -45.2 376.0 13.4 Q 421.1 72.0 467.4 129.6 Q 513.7 187.2 558.8 245.8 L 603.9 304.4 " fill="none" stroke="#3a6ea5" stroke-width="1.6" opacity="0.75"/><path d="M 232.7 -156.1 Q 324.0 -39.7 369.6 18.4 Q 415.3 76.5 460.8 134.7 Q 506.4 192.9 551.6 251.4 L 596.8 309.9 " fill="none" stroke="#3a6ea5" stroke-width="1.6" opacity="0.75"/><path d="M 225.6 -150.5 Q 316.4 -33.8 362.5 24.0 Q 408.6 81.8 453.8 140.2 Q 499.1 198.6 544.4 257.0 L 589.7 315.5 " fill="none" stroke="#3a6ea5" stroke-width="1.6" opacity="0.75"/><path d="M 218.5 -145.0 Q 310.4 -29.2 355.3 29.6 Q 400.2 88.3 446.2 146.1 Q 492.3 204.0 537.4 262.5 L 582.6 321.0 " fill="none" stroke="#3a6ea5" stroke-width="1.6" opacity="0.75"/><path d="M 211.4 -139.4 Q 302.6 -23.1 348.0 35.3 Q 393.4 93.6 438.6 152.1 Q 483.8 210.6 529.7 268.6 L 575.5 326.5 " fill="none" stroke="#3a6ea5" stroke-width="1.6" opacity="0.75"/><path d="M 204.4 -133.9 Q 295.8 -17.7 341.1 40.7 Q 386.4 99.1 432.3 157.0 Q 478.2 215.0 523.3 273.5 L 568.4 332.1 " fill="none" stroke="#3a6ea5" stroke-width="1.6" opacity="0.75"/><path d="M 197.3 -128.3 Q 287.5 -11.3 333.5 46.6 Q 379.5 104.5 424.8 162.9 Q 470.1 221.3 515.7 279.4 L 561.3 337.6 " fill="none" stroke="#3a6ea5" stroke-width="1.6" opacity="0.75"/><path d="M 190.2 -122.8 Q 281.5 -6.5 326.9 51.8 Q 372.3 110.1 417.8 168.3 Q 463.3 226.6 508.8 284.9 L 554.2 343.2 " fill="none" stroke="#3a6ea5" stroke-width="1.6" opacity="0.75"/><path d="M 183.1 -117.3 Q 274.0 -0.7 319.9 57.2 Q 365.8 115.2 410.8 173.9 Q 455.7 232.5 501.4 290.6 L 547.1 348.7 " fill="none" stroke="#3a6ea5" stroke-width="1.6" opacity="0.75"/><path d="M 176.0 -111.7 Q 267.8 4.1 313.0 62.6 Q 358.2 121.1 404.0 179.2 Q 449.8 237.2 494.9 295.7 L 540.0 354.2 " fill="none" stroke="#3a6ea5" stroke-width="1.6" opacity="0.75"/><path d="M 168.9 -106.2 Q 259.9 10.3 305.6 68.4 Q 351.4 126.5 396.5 185.0 Q 441.7 243.5 487.3 301.6 L 532.9 359.8 " fill="none" stroke="#3a6ea5" stroke-width="1.6" opacity="0.75"/><path d="M 161.8 -100.6 Q 253.3 15.5 298.6 73.9 Q 343.8 132.3 389.7 190.3 Q 435.5 248.3 480.7 306.8 L 525.9 365.3 " fill="none" stroke="#3a6ea5" stroke-width="1.6" opacity="0.75"/><path d="M 154.7 -95.1 Q 244.8 22.1 291.2 79.7 Q 337.6 137.2 382.5 196.0 Q 427.3 254.7 473.0 312.8 L 518.8 370.9 " fill="none" stroke="#3a6ea5" stroke-width="1.6" opacity="0.75"/><path d="M 147.6 -89.6 Q 238.4 27.1 283.7 85.6 Q 328.9 144.0 374.8 201.9 Q 420.7 259.9 466.2 318.1 L 511.7 376.4 " fill="none" stroke="#3a6ea5" stroke-width="1.6" opacity="0.75"/><path d="M 140.5 -84.0 Q 230.8 33.1 277.0 90.8 Q 323.2 148.4 368.3 207.0 Q 413.5 265.5 459.0 323.7 L 504.6 382.0 " fill="none" stroke="#3a6ea5" stroke-width="1.6" opacity="0.75"/><path d="M 133.4 -78.5 Q 225.2 37.4 269.9 96.3 Q 314.6 155.2 360.9 212.8 Q 407.1 270.5 452.3 329.0 L 497.5 387.5 " fill="none" stroke="#3a6ea5" stroke-width="1.6" opacity="0.75"/><path d="M 126.3 -72.9 Q 216.5 44.2 262.4 102.2 Q 308.3 160.1 353.8 218.3 Q 399.4 276.5 444.9 334.8 L 490.4 393.0 " fill="none" stroke="#3a6ea5" stroke-width="1.6" opacity="0.75"/><path d="M 119.2 -67.4 Q 211.1 48.4 256.1 107.1 Q 301.1 165.7 347.2 223.5 Q 393.2 281.4 438.3 340.0 L 483.3 398.6 " fill="none" stroke="#3a6ea5" stroke-width="1.6" opacity="0.75"/><path d="M 112.2 -61.9 Q 203.0 54.8 248.9 112.7 Q 294.7 170.7 339.8 229.3 Q 384.9 287.8 430.6 346.0 L 476.2 404.1 " fill="none" stroke="#3a6ea5" stroke-width="1.6" opacity="0.75"/><path d="M 105.1 -56.3 Q 196.6 59.8 241.4 118.5 Q 286.3 177.3 331.8 235.6 Q 377.3 293.8 423.2 351.7 L 469.1 409.7 " fill="none" stroke="#3a6ea5" stroke-width="1.6" opacity="0.75"/><path d="M 98.0 -50.8 Q 189.3 65.4 234.6 123.9 Q 279.9 182.3 325.7 240.3 Q 371.5 298.4 416.7 356.8 L 462.0 415.2 " fill="none" stroke="#3a6ea5" stroke-width="1.6" opacity="0.75"/><path d="M 90.9 -45.2 Q 181.9 71.3 227.4 129.5 Q 272.8 187.8 318.1 246.3 Q 363.3 304.7 409.1 362.7 L 454.9 420.7 " fill="none" stroke="#3a6ea5" stroke-width="1.6" opacity="0.75"/><path d="M 83.8 -39.7 Q 174.0 77.4 220.2 135.1 Q 266.4 192.8 311.2 251.6 Q 355.9 310.5 401.9 368.4 L 447.8 426.3 " fill="none" stroke="#3a6ea5" stroke-width="1.6" opacity="0.75"/><path d="M 76.7 -34.2 Q 167.8 82.3 213.5 140.4 Q 259.1 198.5 304.0 257.2 Q 349.0 315.9 394.9 373.9 L 440.8 431.8 " fill="none" stroke="#3a6ea5" stroke-width="1.6" opacity="0.75"/><path d="M 69.6 -28.6 Q 160.7 87.8 206.0 146.2 Q 251.4 204.6 297.1 262.6 Q 342.8 320.7 388.2 379.0 L 433.7 437.4 " fill="none" stroke="#3a6ea5" stroke-width="1.6" opacity="0.75"/><path d="M 62.5 -23.1 Q 153.7 93.3 199.3 151.4 Q 244.9 209.6 289.9 268.3 Q 334.9 326.9 380.7 384.9 L 426.6 442.9 " fill="none" stroke="#3a6ea5" stroke-width="1.6" opacity="0.75"/><path d="M 55.4 -17.5 Q 147.2 98.3 192.4 156.8 Q 237.6 215.4 283.3 273.5 Q 328.9 331.6 374.2 390.0 L 419.5 448.4 " fill="none" stroke="#3a6ea5" stroke-width="1.6" opacity="0.75"/><path d="M 48.3 -12.0 Q 140.1 103.9 185.0 162.6 Q 229.9 221.4 275.2 279.8 Q 320.5 338.2 366.4 396.1 L 412.4 454.0 " fill="none" stroke="#3a6ea5" stroke-width="1.6" opacity="0.75"/><path d="M 41.2 -6.4 Q 131.8 110.4 177.1 168.8 Q 222.4 227.2 268.1 285.3 Q 313.8 343.4 359.6 401.5 L 405.3 459.5 " fill="none" stroke="#3a6ea5" stroke-width="1.6" opacity="0.75"/><path d="M 34.1 -0.9 Q 124.8 115.9 170.9 173.7 Q 216.9 231.5 262.4 289.8 Q 307.8 348.1 353.0 406.6 L 398.2 465.1 " fill="none" stroke="#3a6ea5" stroke-width="1.6" opacity="0.75"/><path d="M 27.1 4.6 Q 117.3 121.7 163.4 179.5 Q 209.5 237.3 254.8 295.7 Q 300.2 354.1 345.6 412.3 L 391.1 470.6 " fill="none" stroke="#3a6ea5" stroke-width="1.6" opacity="0.75"/><path d="M 20.0 10.2 Q 111.3 126.4 156.5 184.9 Q 201.8 243.3 247.8 301.1 Q 293.9 358.9 339.0 417.5 L 384.0 476.1 " fill="none" stroke="#3a6ea5" stroke-width="1.6" opacity="0.75"/><path d="M 12.9 15.7 Q 104.7 131.6 149.7 190.2 Q 194.7 248.8 239.8 307.4 Q 285.0 365.9 331.0 423.8 L 376.9 481.7 " fill="none" stroke="#3a6ea5" stroke-width="1.6" opacity="0.75"/><path d="M 5.8 21.3 Q 97.2 137.4 142.5 195.8 Q 187.8 254.2 233.2 312.5 Q 278.7 370.8 324.3 429.0 L 369.8 487.2 " fill="none" stroke="#3a6ea5" stroke-width="1.6" opacity="0.75"/><path d="M -1.3 26.8 Q 89.0 143.8 134.8 201.8 Q 180.7 259.8 226.6 317.8 Q 272.5 375.7 317.6 434.2 L 362.7 492.8 " fill="none" stroke="#3a6ea5" stroke-width="1.6" opacity="0.75"/><path d="M -8.4 32.3 Q 82.7 148.8 128.2 207.0 Q 173.7 265.2 219.6 323.2 Q 265.5 381.1 310.6 439.7 L 355.6 498.3 " fill="none" stroke="#3a6ea5" stroke-width="1.6" opacity="0.75"/><path d="M -15.5 37.9 Q 75.8 154.2 120.7 212.9 Q 165.7 271.5 211.9 329.2 Q 258.1 386.9 303.3 445.4 L 348.6 503.9 " fill="none" stroke="#3a6ea5" stroke-width="1.6" opacity="0.75"/><path d="M -22.6 43.4 Q 67.9 160.4 113.8 218.3 Q 159.8 276.2 205.4 334.3 Q 250.9 392.5 296.2 451.0 L 341.5 509.4 " fill="none" stroke="#3a6ea5" stroke-width="1.6" opacity="0.75"/><path d="M -29.7 49.0 Q 60.7 165.9 106.9 223.6 Q 153.1 281.4 197.8 340.2 Q 242.6 399.1 288.5 457.0 L 334.4 514.9 " fill="none" stroke="#3a6ea5" stroke-width="1.6" opacity="0.75"/><path d="M -36.8 54.5 Q 54.9 170.5 100.2 228.9 Q 145.5 287.3 191.2 345.4 Q 236.9 403.5 282.1 462.0 L 327.3 520.5 " fill="none" stroke="#3a6ea5" stroke-width="1.6" opacity="0.75"/><path d="M -43.9 60.0 Q 47.6 176.2 92.8 234.6 Q 138.1 293.1 183.4 351.5 Q 228.8 409.8 274.5 467.9 L 320.2 526.0 " fill="none" stroke="#3a6ea5" stroke-width="1.6" opacity="0.75"/><path d="M -51.0 65.6 Q 40.0 182.1 85.6 240.3 Q 131.2 298.5 176.6 356.8 Q 222.0 415.1 267.5 473.4 L 313.1 531.6 " fill="none" stroke="#3a6ea5" stroke-width="1.6" opacity="0.75"/><path d="M -58.1 71.1 Q 33.6 187.1 78.8 245.6 Q 124.0 304.1 169.5 362.4 Q 215.0 420.6 260.5 478.9 L 306.0 537.1 " fill="none" stroke="#3a6ea5" stroke-width="1.6" opacity="0.75"/><path d="M -65.1 76.7 Q 25.9 193.2 71.0 251.7 Q 116.2 310.2 162.4 367.9 Q 208.7 425.5 253.8 484.1 L 298.9 542.6 " fill="none" stroke="#3a6ea5" stroke-width="1.6" opacity="0.75"/><path d="M -72.2 82.2 Q 18.3 199.0 63.7 257.4 Q 109.0 315.8 155.3 373.4 Q 201.7 431.0 246.7 489.6 L 291.8 548.2 " fill="none" stroke="#3a6ea5" stroke-width="1.6" opacity="0.75"/><path d="M -79.3 87.7 Q 12.3 203.8 57.4 262.4 Q 102.5 320.9 148.5 378.8 Q 194.5 436.6 239.6 495.2 L 284.7 553.7 " fill="none" stroke="#3a6ea5" stroke-width="1.6" opacity="0.75"/><path d="M -86.4 93.3 Q 4.0 210.2 50.3 267.9 Q 96.5 325.6 141.2 384.4 Q 186.0 443.3 231.8 501.3 L 277.6 559.3 " fill="none" stroke="#3a6ea5" stroke-width="1.6" opacity="0.75"/><path d="M -93.5 98.8 Q -1.8 214.8 43.6 273.1 Q 89.1 331.4 134.0 390.1 Q 178.9 448.8 224.7 506.8 L 270.5 564.8 " fill="none" stroke="#3a6ea5" stroke-width="1.6" opacity="0.75"/><path d="M -100.6 104.4 Q -9.4 220.7 36.3 278.8 Q 82.0 336.9 126.8 395.7 Q 171.7 454.4 217.6 512.4 L 263.4 570.3 " fill="none" stroke="#3a6ea5" stroke-width="1.6" opacity="0.75"/><path d="M -107.7 109.9 Q -15.9 225.8 29.1 284.4 Q 74.1 343.1 119.3 401.6 Q 164.4 460.1 210.4 518.0 L 256.4 575.9 " fill="none" stroke="#3a6ea5" stroke-width="1.6" opacity="0.75"/><path d="M -114.8 115.5 Q -23.2 231.5 22.4 289.7 Q 68.0 347.8 113.0 406.5 Q 157.9 465.2 203.6 523.3 L 249.3 581.4 " fill="none" stroke="#3a6ea5" stroke-width="1.6" opacity="0.75"/><path d="M -121.9 121.0 Q -30.1 236.9 15.3 295.2 Q 60.8 353.5 105.8 412.1 Q 150.8 470.7 196.5 528.9 L 242.2 587.0 " fill="none" stroke="#3a6ea5" stroke-width="1.6" opacity="0.75"/></g>
<path d="M 201.8 125.2 L 359.7 125.9 L 360.1 239.0 L 201.1 239.8 L 199.6 124.3 " fill="none" stroke="#3a6ea5" stroke-width="2.2" stroke-linecap="round" stroke-linejoin="round" opacity="0.95"/><path d="M 200.3 125.7 L 359.6 124.1 L 358.9 241.8 L 199.7 237.7 L 198.4 122.4 " fill="none" stroke="#3a6ea5" stroke-width="2.2" stroke-linecap="round" stroke-linejoin="round" opacity="0.5"/>
<clipPath id="clip2"><rect x="577" y="331.61356636316634" width="166" height="60.92409248980579"/></clipPath>
<g clip-path="url(#clip2)">
<path d="M 702.4 7.0 Q 780.2 107.2 819.8 156.7 Q 859.5 206.2 898.3 256.4 Q 937.1 306.6 976.0 356.7 L 1014.8 406.9 " fill="none" stroke="#c96a3e" stroke-width="1.6" opacity="0.75"/><path d="M 695.3 12.5 Q 774.2 111.8 812.7 162.3 Q 851.1 212.8 890.7 262.3 Q 930.3 311.9 969.0 362.2 L 1007.7 412.4 " fill="none" stroke="#c96a3e" stroke-width="1.6" opacity="0.75"/><path d="M 688.2 18.1 Q 766.5 117.9 805.4 168.0 Q 844.3 218.1 883.1 268.3 Q 921.8 318.5 961.2 368.2 L 1000.6 418.0 " fill="none" stroke="#c96a3e" stroke-width="1.6" opacity="0.75"/><path d="M 681.1 23.6 Q 759.6 123.2 798.5 173.4 Q 837.3 223.5 876.8 273.2 Q 916.2 322.9 954.9 373.2 L 993.5 423.5 " fill="none" stroke="#c96a3e" stroke-width="1.6" opacity="0.75"/><path d="M 674.0 29.1 Q 751.4 129.7 790.9 179.3 Q 830.4 228.9 869.3 279.1 Q 908.2 329.2 947.3 379.1 L 986.4 429.0 " fill="none" stroke="#c96a3e" stroke-width="1.6" opacity="0.75"/><path d="M 666.9 34.7 Q 745.3 134.4 784.3 184.5 Q 823.3 234.5 862.3 284.5 Q 901.3 334.5 940.3 384.6 L 979.3 434.6 " fill="none" stroke="#c96a3e" stroke-width="1.6" opacity="0.75"/><path d="M 659.8 40.2 Q 737.8 140.3 777.3 189.9 Q 816.7 239.6 855.2 290.0 Q 893.7 340.5 933.0 390.3 L 972.2 440.1 " fill="none" stroke="#c96a3e" stroke-width="1.6" opacity="0.75"/><path d="M 652.7 45.8 Q 731.6 145.1 770.4 195.3 Q 809.1 245.6 848.4 295.4 Q 887.8 345.1 926.5 395.4 L 965.2 445.7 " fill="none" stroke="#c96a3e" stroke-width="1.6" opacity="0.75"/><path d="M 645.6 51.3 Q 723.7 151.3 763.0 201.1 Q 802.3 250.9 841.0 301.2 Q 879.7 351.4 918.9 401.3 L 958.1 451.2 " fill="none" stroke="#c96a3e" stroke-width="1.6" opacity="0.75"/><path d="M 638.5 56.8 Q 717.1 156.4 755.9 206.6 Q 794.7 256.8 834.1 306.5 Q 873.5 356.3 912.2 406.5 L 951.0 456.8 " fill="none" stroke="#c96a3e" stroke-width="1.6" opacity="0.75"/><path d="M 631.4 62.4 Q 708.6 163.1 748.6 212.4 Q 788.5 261.7 826.9 312.2 Q 865.3 362.6 904.6 412.5 L 943.9 462.3 " fill="none" stroke="#c96a3e" stroke-width="1.6" opacity="0.75"/><path d="M 624.3 67.9 Q 702.2 168.1 741.0 218.3 Q 779.8 268.5 819.3 318.1 Q 858.8 367.8 897.8 417.8 L 936.8 467.8 " fill="none" stroke="#c96a3e" stroke-width="1.6" opacity="0.75"/><path d="M 617.3 73.5 Q 694.6 174.1 734.4 223.5 Q 774.2 272.9 812.8 323.2 Q 851.5 373.5 890.6 423.4 L 929.7 473.4 " fill="none" stroke="#c96a3e" stroke-width="1.6" opacity="0.75"/><path d="M 610.2 79.0 Q 689.0 178.4 727.3 229.0 Q 765.5 279.6 805.3 329.0 Q 845.2 378.4 883.9 428.7 L 922.6 478.9 " fill="none" stroke="#c96a3e" stroke-width="1.6" opacity="0.75"/><path d="M 603.1 84.5 Q 680.3 185.2 719.7 234.9 Q 759.2 284.6 798.3 334.5 Q 837.5 384.4 876.5 434.4 L 915.5 484.5 " fill="none" stroke="#c96a3e" stroke-width="1.6" opacity="0.75"/><path d="M 596.0 90.1 Q 675.0 189.4 713.5 239.8 Q 752.0 290.2 791.6 339.7 Q 831.2 389.3 869.8 439.7 L 908.4 490.0 " fill="none" stroke="#c96a3e" stroke-width="1.6" opacity="0.75"/><path d="M 588.9 95.6 Q 666.8 195.7 706.3 245.4 Q 745.7 295.1 784.3 345.5 Q 822.9 395.8 862.1 445.7 L 901.3 495.5 " fill="none" stroke="#c96a3e" stroke-width="1.6" opacity="0.75"/><path d="M 581.8 101.2 Q 660.4 200.7 698.8 251.3 Q 737.2 301.8 776.2 351.8 Q 815.3 401.8 854.8 451.4 L 894.2 501.1 " fill="none" stroke="#c96a3e" stroke-width="1.6" opacity="0.75"/><path d="M 574.7 106.7 Q 653.2 206.4 692.0 256.6 Q 730.8 306.8 770.1 356.5 Q 809.5 406.3 848.3 456.5 L 887.1 506.6 " fill="none" stroke="#c96a3e" stroke-width="1.6" opacity="0.75"/><path d="M 567.6 112.3 Q 645.7 212.2 684.7 262.3 Q 723.7 312.3 762.5 362.5 Q 801.4 412.6 840.7 462.4 L 880.1 512.2 " fill="none" stroke="#c96a3e" stroke-width="1.6" opacity="0.75"/><path d="M 560.5 117.8 Q 637.8 218.4 677.6 267.8 Q 717.4 317.3 755.7 367.8 Q 794.0 418.4 833.5 468.1 L 873.0 517.7 " fill="none" stroke="#c96a3e" stroke-width="1.6" opacity="0.75"/><path d="M 553.4 123.3 Q 631.6 223.2 670.8 273.1 Q 710.0 323.0 748.5 373.4 Q 787.0 423.9 826.4 473.6 L 865.9 523.2 " fill="none" stroke="#c96a3e" stroke-width="1.6" opacity="0.75"/><path d="M 546.3 128.9 Q 624.5 228.8 663.4 278.9 Q 702.3 329.0 741.6 378.8 Q 780.8 428.7 819.8 478.7 L 858.8 528.8 " fill="none" stroke="#c96a3e" stroke-width="1.6" opacity="0.75"/><path d="M 539.2 134.4 Q 617.5 234.3 656.7 284.2 Q 695.9 334.1 734.4 384.5 Q 772.9 434.9 812.3 484.6 L 851.7 534.3 " fill="none" stroke="#c96a3e" stroke-width="1.6" opacity="0.75"/><path d="M 532.1 140.0 Q 611.1 239.3 649.8 289.6 Q 688.5 339.8 727.7 389.7 Q 767.0 439.5 805.8 489.7 L 844.6 539.9 " fill="none" stroke="#c96a3e" stroke-width="1.6" opacity="0.75"/><path d="M 525.1 145.5 Q 604.0 244.8 642.4 295.3 Q 680.8 345.8 719.6 396.0 Q 758.5 446.1 798.0 495.8 L 837.5 545.4 " fill="none" stroke="#c96a3e" stroke-width="1.6" opacity="0.75"/><path d="M 518.0 151.0 Q 595.6 251.4 634.5 301.5 Q 673.4 351.6 712.6 401.5 Q 751.8 451.3 791.1 501.1 L 830.4 550.9 " fill="none" stroke="#c96a3e" stroke-width="1.6" opacity="0.75"/><path d="M 510.9 156.6 Q 588.6 256.8 628.2 306.4 Q 667.9 355.9 706.8 406.0 Q 745.8 456.0 784.6 506.3 L 823.3 556.5 " fill="none" stroke="#c96a3e" stroke-width="1.6" opacity="0.75"/><path d="M 503.8 162.1 Q 581.1 262.7 620.8 312.2 Q 660.4 361.8 699.3 411.9 Q 738.2 462.0 777.2 512.0 L 816.2 562.0 " fill="none" stroke="#c96a3e" stroke-width="1.6" opacity="0.75"/><path d="M 496.7 167.7 Q 575.1 267.4 613.9 317.6 Q 652.7 367.8 692.3 417.3 Q 731.9 466.9 770.5 517.2 L 809.1 567.6 " fill="none" stroke="#c96a3e" stroke-width="1.6" opacity="0.75"/><path d="M 489.6 173.2 Q 568.5 272.5 607.1 322.9 Q 645.6 373.3 684.3 423.6 Q 723.0 473.9 762.5 523.5 L 802.0 573.1 " fill="none" stroke="#c96a3e" stroke-width="1.6" opacity="0.75"/><path d="M 482.5 178.7 Q 561.0 278.4 599.9 328.5 Q 638.7 378.7 677.7 428.7 Q 716.7 478.8 755.8 528.7 L 794.9 578.7 " fill="none" stroke="#c96a3e" stroke-width="1.6" opacity="0.75"/><path d="M 475.4 184.3 Q 552.8 284.8 592.2 334.5 Q 631.6 384.3 671.0 434.0 Q 710.5 483.6 749.2 533.9 L 787.9 584.2 " fill="none" stroke="#c96a3e" stroke-width="1.6" opacity="0.75"/><path d="M 468.3 189.8 Q 546.5 289.7 585.6 339.7 Q 624.7 389.7 664.1 439.4 Q 703.5 489.1 742.1 539.4 L 780.8 589.7 " fill="none" stroke="#c96a3e" stroke-width="1.6" opacity="0.75"/><path d="M 461.2 195.4 Q 539.6 295.2 578.1 345.6 Q 616.6 396.0 656.4 445.4 Q 696.1 494.9 734.9 545.1 L 773.7 595.3 " fill="none" stroke="#c96a3e" stroke-width="1.6" opacity="0.75"/><path d="M 454.1 200.9 Q 531.7 301.3 571.2 351.0 Q 610.7 400.6 649.8 450.5 Q 689.0 500.5 727.8 550.6 L 766.6 600.8 " fill="none" stroke="#c96a3e" stroke-width="1.6" opacity="0.75"/><path d="M 447.0 206.4 Q 524.6 306.9 564.3 356.3 Q 604.0 405.8 642.3 456.4 Q 680.6 507.0 720.0 556.7 L 759.5 606.4 " fill="none" stroke="#c96a3e" stroke-width="1.6" opacity="0.75"/><path d="M 439.9 212.0 Q 518.7 311.4 557.6 361.6 Q 596.5 411.7 635.7 461.6 Q 674.9 511.4 713.7 561.7 L 752.4 611.9 " fill="none" stroke="#c96a3e" stroke-width="1.6" opacity="0.75"/><path d="M 432.9 217.5 Q 511.4 317.2 550.2 367.4 Q 589.0 417.5 627.9 467.7 Q 666.8 517.8 706.0 567.6 L 745.3 617.4 " fill="none" stroke="#c96a3e" stroke-width="1.6" opacity="0.75"/><path d="M 425.8 223.1 Q 503.9 323.1 543.0 373.0 Q 582.1 423.0 621.0 473.0 Q 660.0 523.1 699.1 573.0 L 738.2 623.0 " fill="none" stroke="#c96a3e" stroke-width="1.6" opacity="0.75"/><path d="M 418.7 228.6 Q 497.5 328.1 536.2 378.3 Q 574.9 428.6 614.0 478.6 Q 653.0 528.6 692.1 578.5 L 731.1 628.5 " fill="none" stroke="#c96a3e" stroke-width="1.6" opacity="0.75"/><path d="M 411.6 234.2 Q 489.7 334.1 528.4 384.4 Q 567.1 434.6 606.9 484.1 Q 646.7 533.5 685.4 583.8 L 724.0 634.1 " fill="none" stroke="#c96a3e" stroke-width="1.6" opacity="0.75"/><path d="M 404.5 239.7 Q 482.2 340.0 521.0 390.1 Q 559.9 440.3 599.8 489.6 Q 639.7 538.9 678.3 589.3 L 716.9 639.6 " fill="none" stroke="#c96a3e" stroke-width="1.6" opacity="0.75"/><path d="M 397.4 245.2 Q 476.1 344.8 514.7 395.1 Q 553.4 445.4 592.9 495.0 Q 632.5 544.6 671.2 594.9 L 709.8 645.1 " fill="none" stroke="#c96a3e" stroke-width="1.6" opacity="0.75"/><path d="M 390.3 250.8 Q 467.9 351.2 507.6 400.6 Q 547.4 450.0 585.7 500.6 Q 624.0 551.2 663.4 600.9 L 702.7 650.7 " fill="none" stroke="#c96a3e" stroke-width="1.6" opacity="0.75"/><path d="M 383.2 256.3 Q 462.0 355.8 501.0 405.8 Q 540.0 455.8 578.5 506.3 Q 616.9 556.8 656.3 606.5 L 695.7 656.2 " fill="none" stroke="#c96a3e" stroke-width="1.6" opacity="0.75"/><path d="M 376.1 261.9 Q 454.4 361.7 493.7 411.5 Q 532.9 461.4 571.3 511.9 Q 609.7 562.4 649.1 612.1 L 688.6 661.8 " fill="none" stroke="#c96a3e" stroke-width="1.6" opacity="0.75"/><path d="M 369.0 267.4 Q 447.9 366.8 486.5 417.1 Q 525.0 467.5 563.7 517.8 Q 602.4 568.1 641.9 617.7 L 681.5 667.3 " fill="none" stroke="#c96a3e" stroke-width="1.6" opacity="0.75"/><path d="M 361.9 272.9 Q 440.6 372.5 479.8 422.4 Q 518.9 472.3 557.4 522.7 Q 596.0 573.1 635.2 623.0 L 674.4 672.8 " fill="none" stroke="#c96a3e" stroke-width="1.6" opacity="0.75"/><path d="M 354.8 278.5 Q 433.7 377.8 472.7 427.9 Q 511.7 478.0 550.3 528.3 Q 588.8 578.7 628.1 628.5 L 667.3 678.4 " fill="none" stroke="#c96a3e" stroke-width="1.6" opacity="0.75"/><path d="M 347.8 284.0 Q 426.0 383.9 464.9 434.0 Q 503.9 484.1 542.9 534.1 Q 582.0 584.0 621.1 634.0 L 660.2 683.9 " fill="none" stroke="#c96a3e" stroke-width="1.6" opacity="0.75"/><path d="M 340.7 289.6 Q 418.0 390.1 457.4 439.8 Q 496.9 489.5 535.9 539.6 Q 574.9 589.6 614.0 639.5 L 653.1 689.5 " fill="none" stroke="#c96a3e" stroke-width="1.6" opacity="0.75"/><path d="M 333.6 295.1 Q 411.6 395.2 451.0 444.8 Q 490.5 494.5 529.4 544.6 Q 568.3 594.7 607.2 644.9 L 646.0 695.0 " fill="none" stroke="#c96a3e" stroke-width="1.6" opacity="0.75"/><path d="M 326.5 300.6 Q 404.1 401.0 443.4 450.8 Q 482.7 500.6 521.3 551.0 Q 559.9 601.3 599.4 650.9 L 638.9 700.6 " fill="none" stroke="#c96a3e" stroke-width="1.6" opacity="0.75"/><path d="M 319.4 306.2 Q 397.7 406.0 436.3 456.4 Q 474.8 506.7 514.4 556.4 Q 553.9 606.0 592.9 656.0 L 631.8 706.1 " fill="none" stroke="#c96a3e" stroke-width="1.6" opacity="0.75"/><path d="M 312.3 311.7 Q 391.0 411.3 429.5 461.7 Q 467.9 512.1 507.4 561.8 Q 546.9 611.5 585.8 661.6 L 624.7 711.6 " fill="none" stroke="#c96a3e" stroke-width="1.6" opacity="0.75"/></g>
<path d="M 581.4 335.8 L 738.1 332.4 L 739.8 391.2 L 581.4 389.9 L 581.8 334.1 " fill="none" stroke="#c96a3e" stroke-width="2.2" stroke-linecap="round" stroke-linejoin="round" opacity="0.95"/><path d="M 580.8 336.7 L 737.9 334.4 L 740.0 388.7 L 577.8 388.2 L 578.7 336.6 " fill="none" stroke="#c96a3e" stroke-width="2.2" stroke-linecap="round" stroke-linejoin="round" opacity="0.5"/>
<text x="280.0" y="108.7" font-family="-apple-system, BlinkMacSystemFont, 'PingFang SC', 'WenQuanYi Zen Hei', 'Microsoft YaHei', system-ui, sans-serif" font-size="16" font-weight="700" fill="#3a6ea5" text-anchor="middle">100 亿 ~ 1000 亿</text>
<text x="660.0" y="318.6" font-family="-apple-system, BlinkMacSystemFont, 'PingFang SC', 'WenQuanYi Zen Hei', 'Microsoft YaHei', system-ui, sans-serif" font-size="16" font-weight="700" fill="#c96a3e" text-anchor="middle">几亿 ~ 十几亿</text>
<text x="280.0" y="500" font-family="-apple-system, BlinkMacSystemFont, 'PingFang SC', 'WenQuanYi Zen Hei', 'Microsoft YaHei', system-ui, sans-serif" font-size="16" fill="#2b2620" text-anchor="middle">加入 B 轮以前的公司</text>
<text x="280.0" y="522" font-family="-apple-system, BlinkMacSystemFont, 'PingFang SC', 'WenQuanYi Zen Hei', 'Microsoft YaHei', system-ui, sans-serif" font-size="14" fill="#8a8070" text-anchor="middle">0.1%~1% 股权</text>
<text x="660.0" y="500" font-family="-apple-system, BlinkMacSystemFont, 'PingFang SC', 'WenQuanYi Zen Hei', 'Microsoft YaHei', system-ui, sans-serif" font-size="16" fill="#2b2620" text-anchor="middle">自己创业</text>
<text x="660.0" y="522" font-family="-apple-system, BlinkMacSystemFont, 'PingFang SC', 'WenQuanYi Zen Hei', 'Microsoft YaHei', system-ui, sans-serif" font-size="14" fill="#8a8070" text-anchor="middle">两位数百分比股权</text>
</svg>